# xmcd
#
# Track frame offsets:
#	150
#	28536
#	56084
#	85469
#	100778
#	125634
#	153402
#	178350
#	207432
#
# Disc length: 3099 seconds
#
# Revision: 0
# Processed by: cddbd v1.5.2PL0 Copyright (c) Steve Scherf et al.
# Submitted via: EasyCDDAExtractor 16.0.9.1
#
DISCID=7e0c1909
DTITLE=Various Artist - Euro Heaven Vol.4
DYEAR=2002
DGENRE=Euro-House
TTITLE0=Daniel - Hero
TTITLE1=Angelica - What If
TTITLE2=Sheldon - Calling
TTITLE3=Helen - Who Do You Love Now (Stringer)
TTITLE4=Wildside - The Winner Takes It All
TTITLE5=Blue Dream - Continuum
TTITLE6=Venus - Wish You Were Here
TTITLE7=Pink Panther - In The Evening
TTITLE8=Saint Etien	 - Memory
EXTD=
EXTT0=
EXTT1=
EXTT2=
EXTT3=
EXTT4=
EXTT5=
EXTT6=
EXTT7=
EXTT8=
PLAYORDER=
